<mxfile host="app.diagrams.net" modified="2024-05-31T05:39:34.029Z" agent="Mozilla/5.0 (Windows NT 10.0; Win64; x64) AppleWebKit/537.36 (KHTML, like Gecko) Chrome/125.0.0.0 Safari/537.36" version="24.4.10" etag="cAW83Q4fN3xf3kyd6CLF" type="github">
  <diagram name="페이지-1" id="dwj5xQpSE7qtI6-VdKvp">
    <mxGraphModel>
      <root>
        <mxCell id="0" />
        <mxCell id="1" parent="0" />
      </root>
    </mxGraphModel>
  </diagram>
</mxfile>
